<?xml version="1.0" encoding="UTF-8"?>
<svg id="Layer_2" data-name="Layer 2" xmlns="http://www.w3.org/2000/svg" viewBox="0 0 469.31 561.9">
  <defs>
    <style>
      .cls-1, .cls-2, .cls-3, .cls-4 {
        stroke: #192e35;
      }

      .cls-1, .cls-2, .cls-3, .cls-4, .cls-5 {
        stroke-linecap: round;
        stroke-linejoin: round;
        stroke-width: .68px;
      }

      .cls-1, .cls-6 {
        fill: #9775b4;
      }

      .cls-7, .cls-8, .cls-2 {
        fill: #fff;
      }

      .cls-8 {
        opacity: .5;
      }

      .cls-3, .cls-9 {
        fill: #192e35;
      }

      .cls-4, .cls-5 {
        fill: none;
      }

      .cls-5 {
        stroke: #fff;
      }
    </style>
  </defs>
  <g id="Layer_1-2" data-name="Layer 1">
    <g>
      <g>
        <ellipse class="cls-6" cx="134.84" cy="545.51" rx="134.84" ry="16.39"/>
        <ellipse class="cls-8" cx="134.84" cy="545.51" rx="134.84" ry="16.39"/>
      </g>
      <g>
        <path class="cls-6" d="M413.89,545.51c0,4.51-30.09,8.17-67.22,8.17s-67.22-3.66-67.22-8.17,30.09-8.17,67.22-8.17,67.22,3.66,67.22,8.17Z"/>
        <path class="cls-8" d="M413.89,545.51c0,4.51-30.09,8.17-67.22,8.17s-67.22-3.66-67.22-8.17,30.09-8.17,67.22-8.17,67.22,3.66,67.22,8.17Z"/>
      </g>
      <g>
        <g>
          <path class="cls-3" d="M161.7,5.58s-10.43-8.19-22.35-4.1c-11.92,4.1-21.04,24.02-24.21,40.23-3.17,16.2-15.64,28.49-12.66,47.49,2.98,19,24.58,21.97,50.65,24.77,26.07,2.79,40.23-.37,52.52-17.51,12.29-17.13,7.08-37.99-.19-56.43-7.26-18.44-19.37-35.57-29.42-38.74-10.06-3.17-14.34,4.28-14.34,4.28Z"/>
          <g>
            <path class="cls-5" d="M118.62,103.09c3.02,1.35,5.46,1.86,5.46,1.86"/>
            <path class="cls-5" d="M159.13,18.86s-5.33,12.95-16,26.66c-10.67,13.71-34.28,26.66-35.81,41.14-.48,4.59,1.03,8.11,3.32,10.78"/>
            <path class="cls-5" d="M202.45,87.69c-.73,1.71-1.7,3.41-2.94,5.06"/>
            <path class="cls-5" d="M193.42,51.62s12.02,13.87,10.85,28.64"/>
            <path class="cls-5" d="M156.85,11.24s-14.48-2.29-25.14,9.9c-.42.48-.82.96-1.2,1.45"/>
          </g>
        </g>
        <g>
          <path class="cls-2" d="M87.99,363.07l-2.32,35.92s-9.93,48.17-13.1,68.03c-3.17,19.86-8.87,50.07-9.93,50.07s-18.17,10.35-23.66,18.8c-5.49,8.45,1.48,12.04,9.09,9.3,7.61-2.75,17.96-10.35,21.34-19.44,3.38-9.09,5.07-12.47,5.28-13.94.21-1.48,36.34-98.46,39.93-108.81,3.59-10.35,11.2-40.78,11.2-40.78l17.75-60.22s19.02,61.91,19.23,64.65c.21,2.75,19.65,161,20.49,166.92.85,5.92.63,10.14,4.23,11.41,3.59,1.27,12.04,1.27,16.48,1.27s19.86,2.32,27.47.42c7.61-1.9,8.45-3.17,3.17-6.97-5.28-3.8-34.63-6.24-37.4-17.33-.21-.85-.42-163.75-.42-163.75,0,0-2.54-53.88-6.76-69.09h-97.61l-4.44,73.53Z"/>
          <path class="cls-3" d="M48.06,545.2c7.61-2.75,17.96-10.35,21.34-19.44.25-.67.48-1.29.71-1.9-4.31,4.59-11.28,10.98-11.28,10.98,0,0-.63-3.59-2.75-5.92-2.11-2.32-4.86-1.48-4.86-1.48l7.39-8.21c-5.67,3.47-15.68,10.56-19.64,16.66-5.49,8.45,1.48,12.04,9.09,9.3Z"/>
          <path class="cls-3" d="M234.62,539.7c-3.62-2.6-18.5-4.57-28.43-9.1-.4.36-.74.79-.94,1.28-.85,2.11-1.48,5.49-1.48,5.49l-20.57-4.39c.03.25.06.46.08.58.85,5.92.63,10.14,4.23,11.41,3.59,1.27,12.04,1.27,16.48,1.27s19.86,2.32,27.47.42c7.61-1.9,8.45-3.17,3.17-6.97Z"/>
        </g>
        <g>
          <path class="cls-3" d="M116.45,202.06s-9.68,4.47-21.42,25.51c-12.82,22.99-10.62,35.76-10.8,63.5-.19,27.75-.74,73.75-.74,73.75,0,0,35.38,9.5,60.9,8.01,25.51-1.49,57.73-7.26,57.73-7.26,0,0-6.89-93.86-13.41-120.86-6.52-27-10.43-39.11-10.43-39.11,0,0-16.39,2.79-37.99.56-21.6-2.23-23.84-4.1-23.84-4.1Z"/>
          <g>
            <path class="cls-5" d="M157.24,284.99c.97,3.2,1.86,6.43,2.65,9.66"/>
            <path class="cls-5" d="M134.75,232.18s10.96,19.53,19.31,43.15"/>
          </g>
        </g>
        <g>
          <path class="cls-2" d="M354.23,184.14c-1.12-.74-19.46-3.62-19.46-3.62l-3.59-1.48s22.21,1.78,22.4.85c.19-.93.93-2.05-.56-2.23-1.49-.19-30.08-6.01-30.08-6.01,0,0,7.26-6.87,8.19-8.36.93-1.49,2.23-4.47.74-4.47s-1.86.93-3.91,2.23c-2.05,1.3-10.06,4.47-12.29,6.33-2.23,1.86-8.94,6.7-8.94,6.7l-77.61-10.68s-27.26-33.59-33.17-40.78c-5.92-7.18-13.94-12.68-13.94-12.68-5.7-2.54-5.49,1.69-5.49,1.69l11.83,53.03s30.85,18.38,32.75,18.38,85.27,2.77,85.27,2.77c0,0,5.59,2.61,9.13,4.84s25.89,9.31,25.89,9.31c0,0,1.49-.74-.19-2.05-1.68-1.3-12.48-6.52-12.48-6.52l22.35,4.84s1.3-.93.74-1.86c-.56-.93-20.49-8.57-20.49-8.57l22.35,1.12s1.68-2.05.56-2.79Z"/>
          <path class="cls-2" d="M224.45,157.64c-8.06-9.92-24.11-29.7-28.49-35.01-5.92-7.18-13.94-12.68-13.94-12.68-5.7-2.54-5.49,1.69-5.49,1.69l11.83,53.03s13.92,8.29,23.64,13.74l12.46-20.77Z"/>
        </g>
        <g>
          <path class="cls-2" d="M141.96,105.4s-16.2.74-26.07,11.73c-9.87,10.99-8.75,35.2-4.66,49.72,4.1,14.53,9.31,22.53,8.19,27.56-1.12,5.03-5.21,6.7-2.98,11.36,2.23,4.66,15.08,9.68,37.8,8.94,22.72-.74,27-5.59,27.19-9.87.19-4.28-1.49-7.82-.93-10.43.56-2.61,16.95-17.13,16.95-33.15s-7.08-21.6-8.75-33.15c-1.68-11.55-1.12-13.22-8.01-18.25-6.89-5.03-29.61-7.64-38.74-4.47Z"/>
          <path class="cls-4" d="M134.61,161s-8.93,7.59-17.87,11.17"/>
          <path class="cls-4" d="M136.4,162.79s-4.02,12.95-13.85,20.1"/>
        </g>
        <g>
          <g>
            <polygon class="cls-2" points="176.6 117.14 178.46 135.01 170.64 125.89 176.6 117.14"/>
            <polygon class="cls-2" points="166.17 136.5 176.6 117.14 167.1 106.89 166.17 136.5"/>
          </g>
          <path class="cls-2" d="M146.06,73.74s2.79,10.62,2.42,19.74c-.37,9.13-1.3,12.85-1.3,12.85l19,30.17,5.4-27.93,3.54-19.37s-21.6-1.3-29.05-15.46Z"/>
          <g>
            <polygon class="cls-2" points="165.05 120.3 166.17 136.5 160.58 127.75 165.05 120.3"/>
            <polygon class="cls-2" points="140.84 105.59 158.16 136.69 165.05 120.3 146.62 94.97 140.84 105.59"/>
          </g>
        </g>
        <g>
          <path class="cls-1" d="M357.63,120.09h70.9l-8.06,52.75s-54.38.77-55.19,0-7.65-52.75-7.65-52.75Z"/>
          <path class="cls-1" d="M244.63,292.74l-6.89,1.23c-4.71.84-8.22-4.25-5.76-8.35l21.92-36.55"/>
          <path class="cls-1" d="M396,292.39l-151.17.31c-4.92,0-4.61-2.49-3.12-6.96l12.19-36.66v-91.71c-.62-11.35,4.73-22.2,14.11-28.63,10.24-6.16,22.07-9.15,34.01-8.59h60.59c11.96-.56,23.81,2.43,34.08,8.59,9.4,6.43,14.81,17.25,14.34,28.63v126.28c.03,4.5-2.63,8.73-15.01,8.73Z"/>
          <path class="cls-1" d="M466.38,292.32l-32.54-.34c-3.02-.03-5.78-1.73-7.17-4.41l-15.62-30.21v-99.99c-.13-11.35,1-22.2,2.99-28.63,2.17-6.16,4.67-9.15,7.2-8.59h12.83c2.53-.56,5.04,2.43,7.21,8.59,1.99,6.43,3.14,17.25,3.04,28.63v84.87c0,4.16,1.11,8.24,3.23,11.83,0,0,15.21,24.62,21.06,34.38,1.03,1.71-.22,3.89-2.22,3.87Z"/>
        </g>
        <g>
          <path class="cls-2" d="M114.96,151.77s8.01,9.5,19.18,16.2c11.17,6.7,52.33,29.98,55.5,31.29s101.31-14.71,101.31-14.71c0,0,5.59,2.61,9.13,4.84,3.54,2.23,25.89,9.31,25.89,9.31,0,0,1.49-.74-.19-2.05-1.68-1.3-12.48-6.52-12.48-6.52l22.35,4.84s1.3-.93.74-1.86-20.49-8.57-20.49-8.57l22.35,1.12s1.68-2.05.56-2.79c-1.12-.74-24.02-5.96-24.02-5.96,0,0,24.4-2.05,24.58-2.98.19-.93.93-2.05-.56-2.23-1.49-.19-32.03-3.17-32.03-3.17,0,0,8.01-5.03,8.94-6.52.93-1.49,2.23-4.47.74-4.47s-1.86.93-3.91,2.23c-2.05,1.3-10.06,4.47-12.29,6.33-2.23,1.86-8.94,6.7-8.94,6.7l-89.76.19-55.68-43.95"/>
          <path class="cls-2" d="M338.8,171.7c-1.49-.19-32.03-3.17-32.03-3.17,0,0,8.01-5.03,8.94-6.52.93-1.49,2.23-4.47.74-4.47s-1.86.93-3.91,2.23c-2.05,1.3-10.06,4.47-12.29,6.33-2.23,1.86-8.94,6.7-8.94,6.7l-89.76.19-10-7.89c-3.81,6.55-10.72,18.83-15.26,26.93,6.99,3.89,12.28,6.78,13.34,7.22,3.17,1.3,101.31-14.71,101.31-14.71,0,0,5.59,2.61,9.13,4.84,3.54,2.23,25.89,9.31,25.89,9.31,0,0,1.49-.74-.19-2.05-1.68-1.3-12.48-6.52-12.48-6.52l22.35,4.84s1.3-.93.74-1.86-20.49-8.57-20.49-8.57l22.35,1.12s1.68-2.05.56-2.79c-1.12-.74-24.02-5.96-24.02-5.96,0,0,24.4-2.05,24.58-2.98.19-.93.93-2.05-.56-2.23Z"/>
        </g>
        <g>
          <path class="cls-2" d="M188.52,58.1c0-.56,3.72-2.42,4.66,1.12.93,3.54-.93,9.5-2.98,11.55-2.05,2.05-3.91,2.61-3.91,0s2.23-12.66,2.23-12.66Z"/>
          <g>
            <path class="cls-2" d="M165.59,25.46s-.37,13.88-10.96,24.11c-10.59,10.23-20.09,14.98-20.09,14.98,0,0,1.1,5.84,3.29,7.67,2.19,1.83,6.57,1.46,6.57,1.46,0,0,3.29,10.23,12.05,18.26,8.77,8.04,18.99,7.31,24.84-4.75,5.84-12.05,8.77-24.11,8.04-31.05l-.73-6.94s-18.99-10.59-23.01-23.74Z"/>
            <g>
              <ellipse class="cls-9" cx="164.49" cy="58.58" rx="1.68" ry="2.98"/>
              <ellipse class="cls-9" cx="173.61" cy="82.42" rx="1.68" ry="2.98"/>
              <ellipse class="cls-9" cx="180.69" cy="58.58" rx="1.68" ry="2.98"/>
              <path class="cls-4" d="M177.34,55.42s-1.12,3.72-.56,6.89c.56,3.17,3.17,8.57.93,9.5-2.23.93-5.21.56-6.33-.74"/>
              <path class="cls-4" d="M159.64,53.2s.88-5.73,8.37-5.07"/>
              <path class="cls-4" d="M179.69,49.9s6.98-5.62,9.24,4.63"/>
            </g>
          </g>
        </g>
      </g>
      <path class="cls-7" d="M388.37,165.03c-.19,0-.38-.05-.54-.15l-6.79-3.39-6.8,3.39c-.16.09-.33.13-.51.14-.59,0-1.06-.48-1.06-1.07v-15.9c-.07-1.21.5-2.37,1.51-3.05,1.09-.66,2.35-.98,3.63-.92h6.46c1.28-.06,2.54.26,3.63.92,1,.69,1.58,1.84,1.53,3.05v15.9c0,.48-.31.9-.78,1.04-.09.03-.19.04-.29.04Z"/>
    </g>
  </g>
</svg>